<?xml version="1.0" encoding="UTF-8"?>
<svg id="Layer_2" data-name="Layer 2" xmlns="http://www.w3.org/2000/svg" viewBox="0 0 524.49 134.02">
  <defs>
    <style>
      .cls-1 {
        fill: #231f20;
      }
    </style>
  </defs>
  <g id="Graphic">
    <g>
      <path class="cls-1" d="M167.58,134.02c-7.61,0-13.86-.8-18.72-2.39-4.87-1.59-8.68-3.7-11.42-6.31-2.75-2.61-4.67-5.44-5.78-8.5-1.11-3.05-1.66-6.09-1.66-9.1,0-5.49,1.17-9.91,3.52-13.28,2.34-3.36,5.2-5.82,8.56-7.37,3.36-1.55,6.51-2.32,9.43-2.32,1.42,0,3.19.24,5.31.73,2.12.49,4.36,1.37,6.71,2.66,2.35,1.28,4.49,3.21,6.44,5.78l2.79-2.39c-2.75-3.45-5.84-6.06-9.3-7.83-3.45-1.77-6.95-2.83-10.49-3.19-2.57-.27-5-.93-7.3-1.99-2.3-1.06-4.38-2.86-6.24-5.38-1.86-2.52-3.41-6.09-4.65-10.69-1.33-4.96-2.94-8.48-4.85-10.56-1.9-2.08-3.92-3.16-6.04-3.25-.71-1.5-1.24-3.65-1.59-6.44-.35-2.79-.51-5.8-.47-9.03.04-3.23.29-6.35.73-9.36.44-3.01,1.06-5.49,1.86-7.44,3.36.27,8.12.62,14.28,1.06,6.15.44,13.03.66,20.65.66,5.75,0,11.35-.22,16.8-.66,5.44-.44,9.85-.8,13.21-1.06-1.42,5.76-1.97,12-1.66,18.72.31,6.73,1.26,13.54,2.85,20.45,1.59,6.91,3.5,13.54,5.71,19.92l-.13-27.62h-3.72c-.97-6.55-1.28-12.48-.93-17.79.35-5.31,1.02-9.87,1.99-13.68,2.3.27,4.76.53,7.37.8,2.61.27,5.91.49,9.89.66,3.98.18,9.12.27,15.4.27,2.66,0,5.69-.11,9.1-.33,3.41-.22,6.77-.46,10.09-.73s6.09-.49,8.3-.66c.8,1.95,1.39,4.43,1.79,7.44.4,3.01.6,6.13.6,9.36s-.18,6.24-.53,9.03c-.35,2.79-.89,4.94-1.59,6.44-2.66.09-4.69,1.37-6.11,3.85-1.42,2.48-2.59,5.82-3.52,10.03-.93,4.21-2.06,8.92-3.39,14.14-2.21,10.18-5.09,18.9-8.63,26.16-3.54,7.26-8.1,13.19-13.68,17.79-5.58,4.6-12.51,7.99-20.78,10.16-8.28,2.17-18.35,3.25-30.21,3.25Z"/>
      <path d="M461.7,49.23c2.11-12.55,0-30.85,4.79-42.55,4.82-11.73,22.6-6.99,20.01,6.42-2.36,12.2-13.26,26.58-18.48,38.01l4.13,2.27c8.76-7.04,16.76-15.45,26.3-21.48,6.34-4.01,14.78-9.22,19.9-.39,6.24,10.75-7.69,15.8-15.43,19.01-8.87,3.68-18.3,5.99-27.43,8.88l-.27,4.69c7.95.71,16,.79,23.94,1.66,6.21.68,17.78,1.15,22.25,5.37,6.05,5.71,2.66,17.33-5.65,17.94-11.03.81-39.65-18.97-41.83-18.23-.84.29-2.44,2.84-2.15,3.87s12.3,14.01,14.25,16.52c3.31,4.25,13.15,17.15,12.45,22.27-.78,5.74-7.38,9.85-12.93,8.23-4.95-1.45-9.04-11.66-10.94-16.24-3.68-8.87-5.99-18.3-8.88-27.43-.75-.83-4.67-.13-5.11,1.25-.34,7.86-.57,15.86-1.58,23.67-1.31,10.08-2.81,30.06-18.12,22.72-9.11-4.36-4.83-14.15-1.77-20.93,4.38-9.7,10.22-18.89,15.41-28.17l-4.76-2.45c-8.92,7.5-17.27,16.47-27.28,22.55-5.94,3.61-13.64,7.36-18.28-.5-6.58-11.15,6.68-15.83,14.8-19.19,8.86-3.68,18.3-5.97,27.42-8.89.91-.36.36-4.47.21-4.66-.75-.97-21.13-1.49-24.5-1.87-4.97-.55-13.01-1-17.42-2.75-12.31-4.92-7.45-22.46,5.18-20.34s26.51,13.02,37.78,18.18c.88.11,3.58-3.29,3.29-4.3s-9.49-10.54-11.06-12.46c-4.3-5.26-17.66-21.06-15.86-27.68,1.62-5.94,10.31-9.22,15.64-5.56,8.09,5.57,13.84,33.41,17.12,42.99l4.87-.42Z"/>
      <path class="cls-1" d="M363.78,26.53c-9.87-8.28-25.65-12.42-47.34-12.42-20.45,0-35.79,4.21-46.01,12.62-10.22,8.41-15.34,21.6-15.34,39.57,0,32.93,20.23,49.4,60.69,49.4,20.98,0,36.69-4.23,47.14-12.68,10.45-8.45,15.67-21.76,15.67-39.9,0-16.11-4.94-28.31-14.81-36.58ZM326.06,67.43c0,3.7-3,6.7-6.7,6.7h-5.05c-3.7,0-6.7-3-6.7-6.7v-5.05c0-3.7,3-6.7,6.7-6.7h5.05c3.7,0,6.7,3,6.7,6.7v5.05Z"/>
      <path class="cls-1" d="M126.48,91.53c-.13-3.89-.6-7.12-1.39-9.69-1.95-.71-3.78-2.19-5.51-4.45-1.73-2.26-2.59-6.09-2.59-11.49,0-2.83.22-6.02.66-9.56.44-3.54.73-7.19.86-10.96.13-3.76-.33-7.28-1.39-10.56-2.12-6.91-6.42-12.1-12.88-15.6-6.46-3.5-15.76-5.25-27.89-5.25-9.39,0-16.64,1.42-21.78,4.25-5.14,2.83-7.92,7.92-8.37,15.27-.89-2.48-1.26-5.05-1.13-7.7.13-2.66.77-5.31,1.93-7.97-3.1-.09-6.64-.18-10.62-.27-3.98-.09-8.03-.2-12.15-.33-4.12-.13-8.01-.24-11.69-.33-3.67-.09-6.79-.13-9.36-.13C.53,29.69.31,43.06,2.52,56.87c8.67.62,17.4.75,26.16.4,8.76-.35,17.66-.71,26.69-1.06v-3.59h7.3v7.04l-28.15.27c-12.04.09-20.8,2.57-26.29,7.44-5.49,4.87-8.23,11.2-8.23,18.99,0,5.14,1.33,9.92,3.98,14.34,2.66,4.43,7.06,8.01,13.21,10.76,6.15,2.74,14.54,4.12,25.16,4.12,7.88,0,14.28-1.11,19.19-3.32,4.91-2.21,8.76-5.09,11.55-8.63,2.79-3.54,4.98-7.26,6.57-11.15l3.45,1.73c-.8,1.95-1.48,3.76-2.06,5.44-.58,1.68-.86,3.28-.86,4.78,0,4.25,1.9,7.17,5.71,8.76,3.81,1.59,9.07,2.39,15.8,2.39,2.66,0,6.11-.16,10.36-.46,4.25-.31,8.32-.91,12.22-1.79.88-2.83,1.5-6.2,1.86-10.09.35-3.89.46-7.79.33-11.69ZM64.54,73.98c0,2.21-1.79,4-4,4h-3.02c-2.21,0-4-1.79-4-4v-3.02c0-2.21,1.79-4,4-4h3.02c2.21,0,4,1.79,4,4v3.02Z"/>
    </g>
  </g>
</svg>